<svg width="21" height="21" viewBox="0 0 21 21" fill="none" xmlns="http://www.w3.org/2000/svg">
<rect width="21" height="21" fill="#E5E5E5"/>
<g filter="url(#filter0_d)">
<g clip-path="url(#clip0)">
<rect x="-234" y="-246" width="416" height="629" rx="18" fill="white"/>
<path d="M-234 -228C-234 -237.941 -225.941 -246 -216 -246H164C173.941 -246 182 -237.941 182 -228V32H-234V-228Z" fill="white"/>
<path d="M52.9544 9.27933L26.632 8.4891C25.7739 8.46359 25.0297 8.75563 24.9722 9.14065L24.7663 10.5226H21.2678C20.4081 10.5226 19.7086 10.8365 19.7086 11.2224V28.2366C19.7086 28.6224 20.4081 28.9364 21.2678 28.9364H41.416C41.5906 28.9364 41.7636 28.9043 41.8875 28.849L44.929 27.4899C44.96 27.4928 44.9915 27.4952 45.0239 27.4962L50.2166 27.652C51.0454 27.6766 51.8208 27.374 51.8764 27.0005L54.4061 10.0243C54.463 9.64332 53.8032 9.30481 52.9544 9.27933ZM42.0842 27.9105V25.8271C42.0842 25.772 42.1842 25.7271 42.3069 25.7271H46.931L42.0842 27.9105ZM50.5429 26.9605C50.5211 27.0209 50.4421 27.0519 50.3059 27.0535L46.1825 26.9297L49.0115 25.6656C49.1375 25.6094 49.2083 25.5329 49.2083 25.4531V11.2224C49.2083 10.8366 48.5088 10.5226 47.6491 10.5226H40.7003C39.8363 10.5226 39.8363 11.1224 40.7003 11.1224H47.6491C47.772 11.1224 47.8719 11.1673 47.8719 11.2224V25.1273H42.3069C41.4473 25.1273 40.7478 25.4412 40.7478 25.8271V28.3365H21.2678C21.145 28.3365 21.0451 28.2917 21.0451 28.2366V11.2224C21.0451 11.1673 21.145 11.1224 21.2678 11.1224H37.1418C38.0058 11.1224 38.0058 10.5226 37.1418 10.5226H26.1057L26.3056 9.18072C26.3274 9.1203 26.4064 9.0893 26.5427 9.08766L52.8651 9.87786C52.9998 9.88761 53.0689 9.92308 53.0726 9.98427L50.5429 26.9605Z" fill="#757575" fill-opacity="0.07"/>
<rect x="-234" y="-247" width="416" height="278" fill="url(#paint0_linear)"/>
<g filter="url(#filter1_d)">
<rect x="-221" y="-47" width="390" height="400" rx="8" fill="white"/>
<rect x="-220.5" y="-46.5" width="389" height="399" rx="7.5" stroke="#E4E4E4"/>
</g>
<circle cx="10.5" cy="10.5" r="10.5" fill="#F7B731" fill-opacity="0.12"/>
<path d="M11.4989 15.0591C11.4987 15.3497 11.4192 15.6338 11.2705 15.8754C11.1217 16.117 10.9103 16.3052 10.6631 16.4164C10.4159 16.5275 10.1439 16.5565 9.88146 16.4998C9.61906 16.443 9.37802 16.303 9.18883 16.0975C8.99964 15.892 8.87078 15.6301 8.81853 15.3451C8.76629 15.06 8.793 14.7645 8.8953 14.4959C8.9976 14.2274 9.17089 13.9978 9.39327 13.8362C9.61566 13.6745 9.87716 13.5882 10.1447 13.588C10.3227 13.5874 10.499 13.6251 10.6635 13.6988C10.8281 13.7726 10.9775 13.8809 11.1034 14.0176C11.2292 14.1543 11.329 14.3167 11.3968 14.4955C11.4647 14.6742 11.4994 14.8657 11.4989 15.0591Z" fill="#FF7600"/>
<path d="M13.9516 7.64328C13.9542 8.12405 13.863 8.59996 13.6841 9.03972C13.6067 9.22901 13.5138 9.4104 13.4066 9.58172C13.1845 9.93052 12.918 10.2433 12.615 10.5109C12.563 10.5582 12.506 10.6074 12.4297 10.6712C12.3341 10.7486 12.2276 10.8297 12.1052 10.9171C11.8891 11.069 11.681 11.2342 11.4822 11.4118C11.3643 11.5116 11.262 11.6316 11.1795 11.767C11.0764 11.9629 11.0244 12.3418 11.0244 12.8938V12.9849H8.76375V12.5586C8.76375 12.2252 8.7713 11.9447 8.78555 11.7005C8.79581 11.4793 8.81709 11.2588 8.84928 11.0401C8.87141 10.8477 8.92478 10.6611 9.00691 10.489C9.15532 10.2203 9.51337 9.855 10.1003 9.37221C10.1255 9.35217 10.1506 9.33121 10.1766 9.31026C10.201 9.29204 10.2244 9.27291 10.2487 9.25287C10.4521 9.09597 10.6393 8.91579 10.8072 8.71543C10.8563 8.65303 10.9016 8.58731 10.943 8.51867L10.9539 8.50045C11.0854 8.24751 11.1498 7.95997 11.1401 7.66969C11.1407 7.59625 11.1362 7.52287 11.1267 7.45016C11.1006 7.16657 10.9794 6.90331 10.7862 6.71049C10.5766 6.50176 10.3064 6.37929 10.0223 6.36433C9.9863 6.36069 9.95277 6.35978 9.91838 6.35978C9.78474 6.35897 9.65153 6.37611 9.52176 6.41079C9.27852 6.47598 9.0603 6.62256 8.89792 6.82982C8.81186 6.94018 8.73863 7.06164 8.6799 7.19145C8.4818 7.68792 8.3551 8.2145 8.30424 8.75277L8.29585 8.84842L6.16772 8.23264V7.21332C6.1778 7.17232 6.18869 7.13133 6.20044 7.09125C6.33629 6.58004 6.55276 6.0983 6.84021 5.66748C6.96307 5.48466 7.10147 5.31479 7.25359 5.16009C7.28964 5.12093 7.32907 5.08267 7.36847 5.04532C7.62454 4.80382 7.90905 4.60041 8.21452 4.44047L8.24135 4.4268C8.81997 4.13629 9.45123 3.9906 10.0886 4.00049C10.1548 4.00049 10.2328 4.0014 10.3099 4.00595C10.9433 4.0234 11.5649 4.19557 12.1287 4.50969C12.3818 4.65206 12.619 4.82567 12.8355 5.0271C13.4431 5.56508 13.8343 6.33859 13.9264 7.18416C13.9433 7.33652 13.9517 7.48983 13.9516 7.64328Z" fill="#FF7600"/>
<path opacity="0.3" d="M12.4347 15.0591C12.4345 15.3497 12.355 15.6338 12.2063 15.8754C12.0575 16.117 11.8461 16.3052 11.5989 16.4164C11.3517 16.5275 11.0797 16.5565 10.8173 16.4998C10.5549 16.443 10.3138 16.303 10.1246 16.0975C9.93543 15.892 9.80657 15.6301 9.75432 15.3451C9.70208 15.06 9.72879 14.7645 9.83109 14.4959C9.93339 14.2274 10.1067 13.9978 10.3291 13.8362C10.5515 13.6745 10.813 13.5882 11.0805 13.588C11.2585 13.5874 11.4348 13.6251 11.5993 13.6988C11.7639 13.7726 11.9133 13.8809 12.0392 14.0176C12.165 14.1543 12.2648 14.3167 12.3327 14.4955C12.4005 14.6742 12.4352 14.8657 12.4347 15.0591Z" fill="black"/>
<path opacity="0.3" d="M14.8874 7.64328C14.89 8.12405 14.7988 8.59996 14.6199 9.03972C14.5424 9.22901 14.4496 9.4104 14.3424 9.58172C14.1203 9.93052 13.8538 10.2433 13.5508 10.5109C13.4988 10.5582 13.4418 10.6074 13.3655 10.6712C13.2699 10.7486 13.1634 10.8297 13.041 10.9171C12.8248 11.069 12.6168 11.2342 12.418 11.4118C12.3001 11.5116 12.1978 11.6316 12.1153 11.767C12.0121 11.9629 11.9602 12.3418 11.9602 12.8938V12.9849H9.69954V12.5586C9.69954 12.2252 9.70709 11.9447 9.72134 11.7005C9.7316 11.4793 9.75288 11.2588 9.78507 11.0401C9.8072 10.8477 9.86057 10.6611 9.9427 10.489C10.0911 10.2203 10.4492 9.855 11.0361 9.37221C11.0613 9.35217 11.0864 9.33121 11.1124 9.31026C11.1367 9.29204 11.1602 9.27291 11.1845 9.25287C11.3879 9.09597 11.5751 8.91579 11.743 8.71543C11.792 8.65303 11.8374 8.58731 11.8788 8.51867L11.8897 8.50045C12.0212 8.24751 12.0856 7.95997 12.0759 7.66969C12.0765 7.59625 12.072 7.52287 12.0625 7.45016C12.0364 7.16657 11.9152 6.90331 11.722 6.71049C11.5124 6.50176 11.2422 6.37929 10.9581 6.36433C10.9221 6.36069 10.8886 6.35978 10.8542 6.35978C10.7205 6.35897 10.5873 6.37611 10.4576 6.41079C10.2143 6.47598 9.99609 6.62256 9.83371 6.82982C9.74765 6.94018 9.67442 7.06164 9.61569 7.19145C9.41759 7.68792 9.29089 8.2145 9.24003 8.75277L9.23164 8.84842L7.10352 8.23264V7.21332C7.11359 7.17232 7.12448 7.13133 7.13623 7.09125C7.27208 6.58004 7.48855 6.0983 7.776 5.66748C7.89886 5.48466 8.03726 5.31479 8.18938 5.16009C8.22543 5.12093 8.26486 5.08267 8.30427 5.04532C8.56033 4.80382 8.84484 4.60041 9.15031 4.44047L9.17714 4.4268C9.75576 4.13629 10.387 3.9906 11.0244 4.00049C11.0906 4.00049 11.1686 4.0014 11.2457 4.00595C11.8791 4.0234 12.5007 4.19557 13.0645 4.50969C13.3176 4.65206 13.5548 4.82567 13.7713 5.0271C14.3789 5.56508 14.7701 6.33859 14.8622 7.18416C14.879 7.33652 14.8874 7.48983 14.8874 7.64328Z" fill="black"/>
<path d="M11.5124 15.0591C11.5122 15.3497 11.4327 15.6338 11.2839 15.8754C11.1351 16.117 10.9238 16.3052 10.6765 16.4164C10.4293 16.5275 10.1573 16.5565 9.8949 16.4998C9.63249 16.443 9.39146 16.303 9.20226 16.0975C9.01307 15.892 8.88421 15.6301 8.83196 15.3451C8.77971 15.06 8.80643 14.7645 8.90873 14.4959C9.01103 14.2274 9.18432 13.9978 9.40671 13.8362C9.62909 13.6745 9.89059 13.5882 10.1581 13.588C10.3361 13.5874 10.5124 13.6251 10.677 13.6988C10.8415 13.7726 10.991 13.8809 11.1168 14.0176C11.2427 14.1543 11.3424 14.3167 11.4103 14.4955C11.4782 14.6742 11.5129 14.8657 11.5124 15.0591Z" fill="#FF7600"/>
<path d="M13.965 7.64328C13.9676 8.12405 13.8764 8.59996 13.6975 9.03972C13.6201 9.22901 13.5272 9.4104 13.42 9.58172C13.1979 9.93052 12.9314 10.2433 12.6284 10.5109C12.5764 10.5582 12.5194 10.6074 12.4431 10.6712C12.3475 10.7486 12.241 10.8297 12.1186 10.9171C11.9024 11.069 11.6944 11.2342 11.4956 11.4118C11.3777 11.5116 11.2754 11.6316 11.1929 11.767C11.0898 11.9629 11.0378 12.3418 11.0378 12.8938V12.9849H8.77714V12.5586C8.77714 12.2252 8.78469 11.9447 8.79894 11.7005C8.8092 11.4793 8.83048 11.2588 8.86267 11.0401C8.8848 10.8477 8.93817 10.6611 9.0203 10.489C9.16871 10.2203 9.52676 9.855 10.1137 9.37221C10.1389 9.35217 10.164 9.33121 10.19 9.31026C10.2144 9.29204 10.2378 9.27291 10.2621 9.25287C10.4655 9.09597 10.6527 8.91579 10.8206 8.71543C10.8696 8.65303 10.915 8.58731 10.9564 8.51867L10.9673 8.50045C11.0988 8.24751 11.1632 7.95997 11.1535 7.66969C11.1541 7.59625 11.1496 7.52287 11.1401 7.45016C11.114 7.16657 10.9928 6.90331 10.7996 6.71049C10.59 6.50176 10.3198 6.37929 10.0357 6.36433C9.99969 6.36069 9.96616 6.35978 9.93177 6.35978C9.79813 6.35897 9.66492 6.37611 9.53515 6.41079C9.29192 6.47598 9.07369 6.62256 8.91131 6.82982C8.82525 6.94018 8.75202 7.06164 8.69329 7.19145C8.54235 7.51848 8.44425 7.95207 8.40148 8.4795L8.39309 8.57515L6 8.2044L6.01173 8.11422C6.05378 7.7679 6.12136 7.42581 6.21382 7.09125C6.34968 6.58004 6.56615 6.0983 6.8536 5.66748C6.97646 5.48466 7.11486 5.31479 7.26698 5.16009C7.30303 5.12093 7.34245 5.08267 7.38186 5.04532C7.63792 4.80382 7.92244 4.60041 8.2279 4.44047L8.25474 4.4268C8.83335 4.13629 9.46463 3.9906 10.102 4.00049C10.1682 4.00049 10.2462 4.0014 10.3233 4.00595C10.9567 4.0234 11.5783 4.19557 12.1421 4.50969C12.3952 4.65206 12.6324 4.82567 12.8489 5.0271C13.4565 5.56508 13.8477 6.33859 13.9398 7.18416C13.9566 7.33652 13.9651 7.48983 13.965 7.64328Z" fill="#FF7600"/>
</g>
</g>
<defs>
<filter id="filter0_d" x="-284" y="-296" width="516" height="729" filterUnits="userSpaceOnUse" color-interpolation-filters="sRGB">
<feFlood flood-opacity="0" result="BackgroundImageFix"/>
<feColorMatrix in="SourceAlpha" type="matrix" values="0 0 0 0 0 0 0 0 0 0 0 0 0 0 0 0 0 0 127 0"/>
<feOffset/>
<feGaussianBlur stdDeviation="25"/>
<feColorMatrix type="matrix" values="0 0 0 0 0 0 0 0 0 0 0 0 0 0 0 0 0 0 0.08 0"/>
<feBlend mode="normal" in2="BackgroundImageFix" result="effect1_dropShadow"/>
<feBlend mode="normal" in="SourceGraphic" in2="effect1_dropShadow" result="shape"/>
</filter>
<filter id="filter1_d" x="-246" y="-72" width="440" height="450" filterUnits="userSpaceOnUse" color-interpolation-filters="sRGB">
<feFlood flood-opacity="0" result="BackgroundImageFix"/>
<feColorMatrix in="SourceAlpha" type="matrix" values="0 0 0 0 0 0 0 0 0 0 0 0 0 0 0 0 0 0 127 0"/>
<feOffset/>
<feGaussianBlur stdDeviation="12.5"/>
<feColorMatrix type="matrix" values="0 0 0 0 0 0 0 0 0 0 0 0 0 0 0 0 0 0 0.05 0"/>
<feBlend mode="normal" in2="BackgroundImageFix" result="effect1_dropShadow"/>
<feBlend mode="normal" in="SourceGraphic" in2="effect1_dropShadow" result="shape"/>
</filter>
<linearGradient id="paint0_linear" x1="-228.5" y1="-239.5" x2="183" y2="172" gradientUnits="userSpaceOnUse">
<stop stop-color="#F5821F"/>
<stop offset="1" stop-color="#FF5C00"/>
</linearGradient>
<clipPath id="clip0">
<rect x="-234" y="-246" width="416" height="629" rx="18" fill="white"/>
</clipPath>
</defs>
</svg>
