<svg width="36" height="30" viewBox="0 0 36 30" fill="none" xmlns="http://www.w3.org/2000/svg">
<rect width="36" height="30" fill="#E5E5E5"/>
<g filter="url(#filter0_d)">
<g clip-path="url(#clip0)">
<rect x="-53" y="-183" width="416" height="629" rx="18" fill="white"/>
<path d="M-53 -165C-53 -174.941 -44.9411 -183 -35 -183H345C354.941 -183 363 -174.941 363 -165V95H-53V-165Z" fill="white"/>
<path d="M6.56142 5.11233H2.53833V5.71423H6.56142V5.11233Z" fill="#757575" fill-opacity="0.07"/>
<path d="M1.19729 5.11233H-2.82581V5.71423H1.19729V5.11233Z" fill="#757575" fill-opacity="0.07"/>
<path d="M13.2579 -0.665046L-0.0096283 -6.62089C-0.386374 -6.79161 -0.899736 -6.88754 -1.43514 -6.88724H-1.44118C-1.97306 -6.88712 -2.48249 -6.79116 -2.85529 -6.62089L-16.9294 -0.304805H-24.2823C-25.3932 -0.304805 -26.2938 0.099411 -26.2938 0.598052V9.02472C-26.2938 9.52336 -25.3932 9.92758 -24.2823 9.92758H-14.3479L-12.3471 10.8265C-11.9704 10.9972 -11.457 11.0932 -10.9216 11.0929H-10.9162C-10.3842 11.0928 -9.87441 10.9968 -9.50144 10.8265L-7.4966 9.92758H7.90245C9.01341 9.92758 9.914 9.52336 9.914 9.02472V2.11305L13.2545 0.613701C13.6358 0.446184 13.851 0.216933 13.8519 -0.0225124C13.8539 -0.263801 13.6399 -0.495308 13.2579 -0.665046ZM4.72823 -3.64237L-2.70778 -0.304805H-8.4018L1.88123 -4.92021L4.72823 -3.64237ZM-1.90584 -6.19655C-1.6508 -6.31381 -1.23223 -6.31607 -0.970894 -6.20155C-0.967123 -6.1999 -0.963352 -6.19824 -0.959747 -6.19655L0.933115 -5.34576L-10.2987 -0.304805H-15.0332L-1.90584 -6.19655ZM-10.4509 10.4022C-10.5735 10.4597 -10.743 10.4922 -10.9203 10.4925C-11.0999 10.4923 -11.2719 10.4598 -11.3977 10.4022L-12.451 9.92758H-9.39282L-10.4509 10.4022ZM8.57297 9.02472C8.57297 9.19092 8.27274 9.32567 7.90245 9.32567H-24.2823C-24.6526 9.32567 -24.9528 9.19092 -24.9528 9.02472V4.81139H8.57297V9.02472ZM8.57297 4.20948H-24.9528V2.40377H8.57297V4.20948ZM8.57297 1.80186H-24.9528V0.598052C-24.9528 0.431851 -24.6526 0.297099 -24.2823 0.297099H7.90245C8.27274 0.297099 8.57297 0.431851 8.57297 0.598052V1.80186ZM12.3097 0.18665L9.914 1.26195V0.598052C9.914 0.099411 9.01341 -0.304805 7.90245 -0.304805H-0.814247L5.67366 -3.21682L12.3071 -0.239499C12.4359 -0.182845 12.5084 -0.105274 12.5082 -0.0243182C12.5081 0.0551333 12.4365 0.131199 12.3097 0.18665Z" fill="#757575" fill-opacity="0.07"/>
<rect x="-53" y="-184" width="416" height="278" fill="url(#paint0_linear)"/>
<g filter="url(#filter1_d)">
<rect x="-40" y="16" width="390" height="400" rx="8" fill="white"/>
<rect x="-39.5" y="16.5" width="389" height="399" rx="7.5" stroke="#E4E4E4"/>
</g>
<g filter="url(#filter2_d)">
<circle cx="18.5" cy="15.5" r="33.5" fill="url(#paint1_linear)"/>
</g>
<path d="M18.5 15C19.8807 15 21 14.1046 21 13H16C16 14.1046 17.1193 15 18.5 15Z" fill="#FF6A00"/>
<path d="M1.8 13.125H3.6V24.375H1.8C1.56354 24.3753 1.32935 24.327 1.11084 24.2329C0.892325 24.1387 0.693783 24.0006 0.526582 23.8265C0.35938 23.6523 0.226804 23.4455 0.136445 23.2179C0.0460864 22.9903 -0.000280023 22.7463 1.27228e-06 22.5V15C-0.000280023 14.7537 0.0460864 14.5097 0.136445 14.2821C0.226804 14.0545 0.35938 13.8477 0.526582 13.6735C0.693783 13.4994 0.892325 13.3613 1.11084 13.2671C1.32935 13.173 1.56354 13.1247 1.8 13.125ZM30.6 10.3125V26.25C30.5991 27.2443 30.2195 28.1975 29.5445 28.9006C28.8696 29.6036 27.9545 29.999 27 30H9C8.04551 29.999 7.13038 29.6036 6.45545 28.9006C5.78052 28.1975 5.40094 27.2443 5.4 26.25V10.3125C5.39981 9.69687 5.51607 9.08724 5.74215 8.51843C5.96823 7.94963 6.29969 7.43281 6.71759 6.99749C7.13549 6.56218 7.63165 6.21691 8.1777 5.98141C8.72375 5.74591 9.309 5.6248 9.9 5.625H16.2V1.875C16.2 1.37772 16.3896 0.900806 16.7272 0.549175C17.0648 0.197544 17.5226 0 18 0C18.4774 0 18.9352 0.197544 19.2728 0.549175C19.6104 0.900806 19.8 1.37772 19.8 1.875V5.625H26.1C26.691 5.6248 27.2763 5.74591 27.8223 5.98141C28.3684 6.21691 28.8645 6.56218 29.2824 6.99749C29.7003 7.43281 30.0318 7.94963 30.2578 8.51843C30.4839 9.08724 30.6002 9.69687 30.6 10.3125ZM14.85 15C14.85 14.5365 14.718 14.0833 14.4708 13.6979C14.2236 13.3125 13.8722 13.012 13.461 12.8347C13.0499 12.6573 12.5975 12.6109 12.161 12.7013C11.7246 12.7917 11.3237 13.0149 11.009 13.3427C10.6943 13.6705 10.48 14.0881 10.3932 14.5428C10.3064 14.9974 10.351 15.4686 10.5213 15.8969C10.6916 16.3252 10.98 16.6912 11.35 16.9488C11.72 17.2063 12.155 17.3438 12.6 17.3438C12.8955 17.3438 13.1881 17.2832 13.4611 17.1654C13.7341 17.0476 13.9821 16.875 14.191 16.6573C14.4 16.4397 14.5657 16.1813 14.6788 15.8969C14.7918 15.6126 14.85 15.3078 14.85 15ZM14.4 22.5H10.8V24.375H14.4V22.5ZM19.8 22.5H16.2V24.375H19.8V22.5ZM25.65 15C25.65 14.5365 25.518 14.0833 25.2708 13.6979C25.0236 13.3125 24.6722 13.012 24.261 12.8347C23.8499 12.6573 23.3975 12.6109 22.961 12.7013C22.5246 12.7917 22.1237 13.0149 21.809 13.3427C21.4943 13.6705 21.2801 14.0881 21.1932 14.5428C21.1064 14.9974 21.151 15.4686 21.3213 15.8969C21.4916 16.3252 21.78 16.6912 22.15 16.9488C22.52 17.2063 22.955 17.3438 23.4 17.3438C23.6955 17.3438 23.9881 17.2832 24.2611 17.1654C24.5341 17.0476 24.7821 16.875 24.991 16.6573C25.2 16.4397 25.3657 16.1813 25.4788 15.8969C25.5918 15.6126 25.65 15.3078 25.65 15ZM25.2 22.5H21.6V24.375H25.2V22.5ZM36 15V22.5C36.0003 22.7463 35.9539 22.9903 35.8636 23.2179C35.7732 23.4455 35.6406 23.6523 35.4734 23.8265C35.3062 24.0006 35.1077 24.1387 34.8892 24.2329C34.6706 24.327 34.4365 24.3753 34.2 24.375H32.4V13.125H34.2C34.4365 13.1247 34.6706 13.173 34.8892 13.2671C35.1077 13.3613 35.3062 13.4994 35.4734 13.6735C35.6406 13.8477 35.7732 14.0545 35.8636 14.2821C35.9539 14.5097 36.0003 14.7537 36 15Z" fill="white"/>
</g>
</g>
<defs>
<filter id="filter0_d" x="-103" y="-233" width="516" height="729" filterUnits="userSpaceOnUse" color-interpolation-filters="sRGB">
<feFlood flood-opacity="0" result="BackgroundImageFix"/>
<feColorMatrix in="SourceAlpha" type="matrix" values="0 0 0 0 0 0 0 0 0 0 0 0 0 0 0 0 0 0 127 0"/>
<feOffset/>
<feGaussianBlur stdDeviation="25"/>
<feColorMatrix type="matrix" values="0 0 0 0 0 0 0 0 0 0 0 0 0 0 0 0 0 0 0.08 0"/>
<feBlend mode="normal" in2="BackgroundImageFix" result="effect1_dropShadow"/>
<feBlend mode="normal" in="SourceGraphic" in2="effect1_dropShadow" result="shape"/>
</filter>
<filter id="filter1_d" x="-65" y="-9" width="440" height="450" filterUnits="userSpaceOnUse" color-interpolation-filters="sRGB">
<feFlood flood-opacity="0" result="BackgroundImageFix"/>
<feColorMatrix in="SourceAlpha" type="matrix" values="0 0 0 0 0 0 0 0 0 0 0 0 0 0 0 0 0 0 127 0"/>
<feOffset/>
<feGaussianBlur stdDeviation="12.5"/>
<feColorMatrix type="matrix" values="0 0 0 0 0 0 0 0 0 0 0 0 0 0 0 0 0 0 0.05 0"/>
<feBlend mode="normal" in2="BackgroundImageFix" result="effect1_dropShadow"/>
<feBlend mode="normal" in="SourceGraphic" in2="effect1_dropShadow" result="shape"/>
</filter>
<filter id="filter2_d" x="-30" y="-33" width="97" height="97" filterUnits="userSpaceOnUse" color-interpolation-filters="sRGB">
<feFlood flood-opacity="0" result="BackgroundImageFix"/>
<feColorMatrix in="SourceAlpha" type="matrix" values="0 0 0 0 0 0 0 0 0 0 0 0 0 0 0 0 0 0 127 0"/>
<feOffset/>
<feGaussianBlur stdDeviation="7.5"/>
<feColorMatrix type="matrix" values="0 0 0 0 0 0 0 0 0 0 0 0 0 0 0 0 0 0 0.15 0"/>
<feBlend mode="normal" in2="BackgroundImageFix" result="effect1_dropShadow"/>
<feBlend mode="normal" in="SourceGraphic" in2="effect1_dropShadow" result="shape"/>
</filter>
<linearGradient id="paint0_linear" x1="-47.5" y1="-176.5" x2="364" y2="235" gradientUnits="userSpaceOnUse">
<stop stop-color="#F5821F"/>
<stop offset="1" stop-color="#FF5C00"/>
</linearGradient>
<linearGradient id="paint1_linear" x1="18.5" y1="-18" x2="18.5" y2="49" gradientUnits="userSpaceOnUse">
<stop stop-color="#FF7600"/>
<stop offset="1" stop-color="#FF5C00"/>
</linearGradient>
<clipPath id="clip0">
<rect x="-53" y="-183" width="416" height="629" rx="18" fill="white"/>
</clipPath>
</defs>
</svg>
